<svg fill="#ffffff" xmlns="http://www.w3.org/2000/svg" xmlns:xlink="http://www.w3.org/1999/xlink" version="1.1" xml:space="preserve" class="u-svg-content" viewBox="0 0 512 512" id="svg-21d4"><g><path d="m175.01 327.204c-17.911-9.185-40.329-6.176-55.206 8.688-8.969 8.962-13.908 20.881-13.908 33.563s4.939 24.601 13.904 33.558l44.594 44.594c2.928 2.928 6.767 4.393 10.606 4.393s7.678-1.465 10.606-4.394l44.59-44.589c8.969-8.962 13.908-20.881 13.908-33.562 0-12.683-4.939-24.602-13.918-33.572-14.867-14.829-37.277-17.836-55.176-8.679zm33.977 54.596-33.987 33.987-33.991-33.992c-3.297-3.294-5.113-7.677-5.113-12.34 0-4.664 1.816-9.047 5.112-12.341 3.407-3.403 7.886-5.12 12.369-5.12 4.15 0 8.305 1.471 11.616 4.437 5.693 5.096 14.308 5.102 20.003.009 6.896-6.163 17.441-5.863 23.995.675 3.297 3.294 5.113 7.677 5.113 12.341 0 4.662-1.816 9.045-5.117 12.344z"></path><path d="m467 142h-15v-112h5c8.284 0 15-6.716 15-15s-6.716-15-15-15h-20-80-20c-8.284 0-15 6.716-15 15s6.716 15 15 15h5v112h-15c-24.813 0-45 20.187-45 45v75h-37v-25c0-19.299-15.701-35-35-35h-70c-19.299 0-35 15.701-35 35v25h-60c-24.813 0-45 20.187-45 45v160c0 24.813 20.187 45 45 45h260c23.123 0 42.219-17.532 44.716-40h92.284v25c0 8.284 6.716 15 15 15s15-6.716 15-15v-25.284c22.468-2.496 40-21.593 40-44.716v-240c0-24.813-20.187-45-45-45zm-95-112h50v112h-50zm-237 207c0-2.757 2.243-5 5-5h70c2.757 0 5 2.243 5 5v25h-80zm185 230c0 8.271-6.729 15-15 15h-260c-8.271 0-15-6.729-15-15v-160c0-8.271 6.729-15 15-15h260c8.271 0 15 6.729 15 15zm162-40c0 8.271-6.729 15-15 15h-117v-135c0-22.433-16.5-41.08-38-44.453v-75.547c0-8.271 6.729-15 15-15h140c8.271 0 15 6.729 15 15z"></path>
</g></svg>